<mxfile host="app.diagrams.net" modified="2022-11-06T23:35:03.354Z" agent="5.0 (Windows NT 10.0; WOW64) AppleWebKit/537.36 (KHTML, like Gecko) Chrome/86.0.4240.198 Safari/537.36" etag="mClpsDYBcR6XmD-G61C4" version="20.5.2" type="github">
  <diagram id="JeJywL8coe2lzpXu5Vt7" name="Page-1">
    <mxGraphModel dx="1580" dy="824" grid="0" gridSize="10" guides="1" tooltips="1" connect="1" arrows="1" fold="1" page="0" pageScale="1" pageWidth="827" pageHeight="1169" math="0" shadow="0">
      <root>
        <mxCell id="0" />
        <mxCell id="1" parent="0" />
        <mxCell id="1hX16fWDbQH54hL-igkK-1" value="&lt;font style=&quot;font-size: 17px; user-select: auto;&quot;&gt;semaphore：&lt;br style=&quot;user-select: auto;&quot;&gt;&lt;br style=&quot;user-select: auto;&quot;&gt;semaphore就是对共享资源(key)的监控；&lt;br style=&quot;user-select: auto;&quot;&gt;能够让很多个percessor&lt;b style=&quot;user-select: auto;&quot;&gt;&lt;font style=&quot;user-select: auto;&quot; color=&quot;#ea6b66&quot;&gt;共享&lt;/font&gt;&lt;/b&gt;的；&lt;br style=&quot;user-select: auto;&quot;&gt;同时具有&lt;font color=&quot;#ea6b66&quot;&gt;&lt;b&gt;阻塞&lt;/b&gt;&lt;/font&gt;性质的&lt;br style=&quot;user-select: auto;&quot;&gt;&lt;/font&gt;" style="text;html=1;align=left;verticalAlign=middle;resizable=0;points=[];autosize=1;strokeColor=none;fillColor=none;" vertex="1" parent="1">
          <mxGeometry x="-203" y="94" width="328" height="112" as="geometry" />
        </mxCell>
        <mxCell id="1hX16fWDbQH54hL-igkK-2" value="&lt;font style=&quot;font-size: 17px; user-select: auto;&quot;&gt;&lt;font style=&quot;user-select: auto;&quot; color=&quot;#333333&quot;&gt;semaphore的类型分类：&lt;br style=&quot;user-select: auto;&quot;&gt;&lt;/font&gt;&lt;br style=&quot;user-select: auto;&quot;&gt;&lt;font style=&quot;user-select: auto;&quot; color=&quot;#333333&quot;&gt;1. 按照初始条件：&lt;br style=&quot;user-select: auto;&quot;&gt;&lt;/font&gt;&lt;span style=&quot;white-space: pre; user-select: auto;&quot;&gt;	&lt;/span&gt;&lt;font style=&quot;user-select: auto;&quot; color=&quot;#0e0c0c&quot;&gt;&lt;font style=&quot;user-select: auto;&quot;&gt;a&lt;/font&gt;.semaphore只能为0/1---&amp;gt;能/不能；一次只有一个能进入&lt;br style=&quot;user-select: auto;&quot;&gt;&lt;/font&gt;&amp;nbsp; &amp;nbsp; &amp;nbsp; &amp;nbsp; &lt;font style=&quot;user-select: auto;&quot; color=&quot;#030101&quot;&gt;b.如果semaphore的值可以&amp;gt;1那么就是有一个计数，一次能进入n个&lt;br style=&quot;user-select: auto;&quot;&gt;&lt;/font&gt;&lt;/font&gt;&lt;p style=&quot;user-select: auto;&quot;&gt;&lt;font style=&quot;font-size: 17px; user-select: auto;&quot;&gt;2. 根据&lt;/font&gt;&lt;/p&gt;" style="text;html=1;align=left;verticalAlign=middle;resizable=0;points=[];autosize=1;strokeColor=none;fillColor=none;fontSize=17;fontColor=#EA6B66;" vertex="1" parent="1">
          <mxGeometry x="202" y="67" width="558" height="166" as="geometry" />
        </mxCell>
      </root>
    </mxGraphModel>
  </diagram>
</mxfile>
